<?xml version="1.0" standalone="no"?>
<!DOCTYPE svg PUBLIC "-//W3C//DTD SVG 20010904//EN"
 "http://www.w3.org/TR/2001/REC-SVG-20010904/DTD/svg10.dtd">
<svg version="1.0" xmlns="http://www.w3.org/2000/svg"
 width="128.000000pt" height="128.000000pt" viewBox="0 0 128.000000 128.000000"
 preserveAspectRatio="xMidYMid meet">

<g transform="translate(0.000000,128.000000) scale(0.100000,-0.100000)"
fill="#000000" stroke="none">
<path d="M760 1204 c0 -25 3 -35 10 -28 15 15 17 56 3 61 -9 3 -13 -7 -13 -33z"/>
<path d="M846 1155 c-9 -14 -14 -25 -11 -25 14 0 65 31 65 40 0 20 -38 9 -54
-15z"/>
<path d="M706 1121 c-11 -12 -17 -32 -15 -53 2 -18 -3 -43 -9 -55 -7 -12 -12
-31 -12 -42 0 -19 -6 -21 -51 -21 -167 0 -336 -101 -408 -243 -107 -210 -30
-457 179 -580 110 -64 287 -74 401 -24 l56 25 73 -24 c82 -27 210 -43 210 -27
0 6 -11 31 -25 55 -14 25 -34 71 -45 102 -18 53 -18 61 -4 114 23 88 27 162
14 227 -33 163 -150 295 -304 346 -36 12 -66 25 -66 30 0 25 26 59 44 59 37 0
66 28 66 64 0 59 -66 89 -104 47z m74 -39 c0 -13 -23 -32 -37 -32 -19 0 -27
28 -13 45 9 11 17 12 31 4 10 -5 19 -13 19 -17z m-63 -176 c82 -22 144 -57
204 -116 56 -55 75 -87 104 -169 19 -55 20 -198 0 -270 -17 -64 -12 -96 26
-177 16 -34 29 -65 29 -68 0 -11 -82 4 -161 30 l-76 24 -59 -26 c-114 -51
-274 -41 -383 23 -71 42 -139 116 -174 191 -27 60 -31 77 -31 162 0 87 3 101
33 163 89 185 297 284 488 233z"/>
<path d="M376 742 c-59 -32 -101 -111 -93 -171 8 -59 37 -111 80 -142 l39 -29
211 0 c194 0 213 2 247 21 123 69 120 261 -5 327 -24 13 -69 16 -232 17 -198
2 -202 1 -247 -23z m472 -25 c47 -25 72 -72 72 -133 0 -79 -59 -152 -125 -155
-39 -1 -312 -1 -348 0 -120 5 -178 165 -93 260 38 43 65 47 269 46 163 -1 197
-3 225 -18z"/>
<path d="M432 630 c-43 -41 -18 -110 41 -110 33 0 70 45 61 74 -7 26 -41 56
-63 56 -10 0 -27 -9 -39 -20z m63 -30 c15 -16 16 -22 5 -35 -17 -21 -54 -15
-58 8 -4 18 14 47 28 47 4 0 15 -9 25 -20z"/>
<path d="M725 625 c-30 -29 -32 -58 -5 -85 39 -39 110 -11 110 45 0 28 -35 65
-62 65 -11 0 -30 -11 -43 -25z m63 -17 c30 -30 -1 -73 -36 -51 -23 14 -25 29
-7 47 20 19 27 20 43 4z"/>
<path d="M867 1063 c-26 -7 -10 -23 24 -23 31 0 39 14 13 24 -9 3 -16 5 -17 5
-1 -1 -10 -3 -20 -6z"/>
</g>
</svg>
